<svg width="63" height="79" viewBox="0 0 63 79" fill="none" xmlns="http://www.w3.org/2000/svg">
<path d="M43.125 8.5H8.25V70.5H54.75V20.125H43.125V8.5ZM8.25 0.75H47L62.5 16.25V70.5C62.5 72.5554 61.6835 74.5267 60.2301 75.9801C58.7767 77.4335 56.8054 78.25 54.75 78.25H8.25C6.19457 78.25 4.22333 77.4335 2.76992 75.9801C1.31652 74.5267 0.5 72.5554 0.5 70.5V8.5C0.5 6.44457 1.31652 4.47333 2.76992 3.01992C4.22333 1.56652 6.19457 0.75 8.25 0.75ZM16 35.625H47V43.375H16V35.625ZM16 51.125H47V58.875H16V51.125Z" fill="#AA9009"/>
</svg>
