<svg width="201" height="127" viewBox="0 0 201 127" fill="none" xmlns="http://www.w3.org/2000/svg">
<rect x="4" y="3.99999" width="193" height="119" rx="10" fill="#C4C4C4" stroke="black" stroke-width="8"/>
<mask id="path-2-outside-1_10_50" maskUnits="userSpaceOnUse" x="-5.37336" y="-3.7154" width="135.914" height="135.668" fill="black">
<rect fill="white" x="-5.37336" y="-3.7154" width="135.914" height="135.668"/>
<path d="M94.9669 86.3549C95.4193 86.6717 95.5302 87.2961 95.2023 87.7405C89.4734 95.5035 81.131 100.953 71.6955 103.071C61.9344 105.262 51.7069 103.729 43.0171 98.7723C34.3273 93.8158 27.8015 85.7931 24.7183 76.2761C21.635 66.759 22.2167 56.4337 26.3493 47.3232C30.4818 38.2126 37.8674 30.9736 47.0589 27.0244C56.2504 23.0752 66.5854 22.7005 76.0387 25.9738C85.492 29.2471 93.3824 35.9324 98.1638 44.7198C102.786 53.214 104.181 63.0806 102.113 72.5045C101.995 73.0439 101.452 73.3718 100.916 73.2401L75.8312 67.0795C75.2949 66.9477 74.9711 66.4064 75.0589 65.8611C75.4904 63.1808 75.0247 60.4222 73.7182 58.0211C72.2518 55.3261 69.832 53.2758 66.9328 52.272C64.0336 51.2681 60.864 51.383 58.0451 52.5942C55.2262 53.8053 52.9612 56.0254 51.6938 58.8195C50.4264 61.6136 50.248 64.7802 51.1936 67.6989C52.1392 70.6176 54.1405 73.0781 56.8056 74.5982C59.4706 76.1183 62.6072 76.5884 65.6008 75.9165C68.268 75.3179 70.6503 73.8511 72.3828 71.7609C72.7352 71.3357 73.3557 71.2227 73.8081 71.5394L94.9669 86.3549Z"/>
</mask>
<path d="M94.9669 86.3549C95.4193 86.6717 95.5302 87.2961 95.2023 87.7405C89.4734 95.5035 81.131 100.953 71.6955 103.071C61.9344 105.262 51.7069 103.729 43.0171 98.7723C34.3273 93.8158 27.8015 85.7931 24.7183 76.2761C21.635 66.759 22.2167 56.4337 26.3493 47.3232C30.4818 38.2126 37.8674 30.9736 47.0589 27.0244C56.2504 23.0752 66.5854 22.7005 76.0387 25.9738C85.492 29.2471 93.3824 35.9324 98.1638 44.7198C102.786 53.214 104.181 63.0806 102.113 72.5045C101.995 73.0439 101.452 73.3718 100.916 73.2401L75.8312 67.0795C75.2949 66.9477 74.9711 66.4064 75.0589 65.8611C75.4904 63.1808 75.0247 60.4222 73.7182 58.0211C72.2518 55.3261 69.832 53.2758 66.9328 52.272C64.0336 51.2681 60.864 51.383 58.0451 52.5942C55.2262 53.8053 52.9612 56.0254 51.6938 58.8195C50.4264 61.6136 50.248 64.7802 51.1936 67.6989C52.1392 70.6176 54.1405 73.0781 56.8056 74.5982C59.4706 76.1183 62.6072 76.5884 65.6008 75.9165C68.268 75.3179 70.6503 73.8511 72.3828 71.7609C72.7352 71.3357 73.3557 71.2227 73.8081 71.5394L94.9669 86.3549Z" fill="#C4C4C4"/>
<path d="M94.9669 86.3549C95.4193 86.6717 95.5302 87.2961 95.2023 87.7405C89.4734 95.5035 81.131 100.953 71.6955 103.071C61.9344 105.262 51.7069 103.729 43.0171 98.7723C34.3273 93.8158 27.8015 85.7931 24.7183 76.2761C21.635 66.759 22.2167 56.4337 26.3493 47.3232C30.4818 38.2126 37.8674 30.9736 47.0589 27.0244C56.2504 23.0752 66.5854 22.7005 76.0387 25.9738C85.492 29.2471 93.3824 35.9324 98.1638 44.7198C102.786 53.214 104.181 63.0806 102.113 72.5045C101.995 73.0439 101.452 73.3718 100.916 73.2401L75.8312 67.0795C75.2949 66.9477 74.9711 66.4064 75.0589 65.8611C75.4904 63.1808 75.0247 60.4222 73.7182 58.0211C72.2518 55.3261 69.832 53.2758 66.9328 52.272C64.0336 51.2681 60.864 51.383 58.0451 52.5942C55.2262 53.8053 52.9612 56.0254 51.6938 58.8195C50.4264 61.6136 50.248 64.7802 51.1936 67.6989C52.1392 70.6176 54.1405 73.0781 56.8056 74.5982C59.4706 76.1183 62.6072 76.5884 65.6008 75.9165C68.268 75.3179 70.6503 73.8511 72.3828 71.7609C72.7352 71.3357 73.3557 71.2227 73.8081 71.5394L94.9669 86.3549Z" stroke="black" stroke-width="16" mask="url(#path-2-outside-1_10_50)"/>
<rect x="114" y="40" width="74" height="68" rx="9" fill="#575757" stroke="black" stroke-width="4"/>
</svg>
