<svg width="80" height="80" viewBox="0 0 80 80" fill="none" xmlns="http://www.w3.org/2000/svg">
<path d="M71.3777 22.2222H8.62211C7.5141 22.2222 6.45146 22.6623 5.66798 23.4458C4.88449 24.2293 4.44434 25.2919 4.44434 26.3999V66.9333C4.44434 68.0413 4.88449 69.1039 5.66798 69.8874C6.45146 70.6709 7.5141 71.1111 8.62211 71.1111H71.3777C72.4857 71.1111 73.5483 70.6709 74.3318 69.8874C75.1153 69.1039 75.5555 68.0413 75.5555 66.9333V26.3999C75.5555 25.2919 75.1153 24.2293 74.3318 23.4458C73.5483 22.6623 72.4857 22.2222 71.3777 22.2222ZM71.111 66.6666H8.88878V26.6666H71.111V66.6666Z" fill="#35ACEF"/>
<path d="M19.0221 43.2223C20.3407 43.2223 21.6296 42.8313 22.7259 42.0987C23.8223 41.3662 24.6767 40.325 25.1813 39.1068C25.6859 37.8886 25.8179 36.5482 25.5607 35.255C25.3035 33.9618 24.6685 32.7739 23.7362 31.8415C22.8038 30.9092 21.6159 30.2743 20.3227 30.017C19.0295 29.7598 17.6891 29.8918 16.4709 30.3964C15.2527 30.901 14.2115 31.7555 13.479 32.8518C12.7465 33.9481 12.3555 35.237 12.3555 36.5556C12.3555 38.3237 13.0578 40.0194 14.3081 41.2696C15.5583 42.5199 17.254 43.2223 19.0221 43.2223ZM19.0221 33C19.7289 32.9824 20.4248 33.1758 21.0211 33.5556C21.6174 33.9354 22.0869 34.4843 22.3697 35.1322C22.6525 35.7801 22.7357 36.4977 22.6087 37.1931C22.4818 37.8886 22.1503 38.5304 21.6568 39.0366C21.1633 39.5428 20.53 39.8904 19.838 40.0349C19.146 40.1795 18.4266 40.1144 17.7717 39.8481C17.1168 39.5818 16.5562 39.1264 16.1614 38.5399C15.7667 37.9534 15.5557 37.2625 15.5555 36.5556C15.5552 35.6278 15.9176 34.7366 16.5652 34.0723C17.2129 33.408 18.0946 33.0232 19.0221 33Z" fill="#35ACEF"/>
<path d="M17.5558 62.2222L30.8891 48.8889L37.9558 55.9556L31.6891 62.2222H36.1335L52.7113 45.6445L66.6669 59.4889V55.0445L53.778 42.2222C53.4825 41.9291 53.0831 41.7646 52.6669 41.7646C52.2506 41.7646 51.8513 41.9291 51.5558 42.2222L40.0891 53.6889L31.9335 45.5556C31.638 45.2625 31.2387 45.098 30.8224 45.098C30.4062 45.098 30.0068 45.2625 29.7113 45.5556L13.1558 62.2222H17.5558Z" fill="#35ACEF"/>
<path d="M66.9779 6.66668C66.9779 6.07731 66.7437 5.51208 66.327 5.09533C65.9102 4.67858 65.345 4.44446 64.7556 4.44446H15.8668C15.2774 4.44446 14.7122 4.67858 14.2954 5.09533C13.8787 5.51208 13.6445 6.07731 13.6445 6.66668V8.8889H66.9779V6.66668Z" fill="#35ACEF"/>
<path d="M71.378 15.5556C71.378 14.9662 71.1439 14.401 70.7271 13.9842C70.3104 13.5675 69.7451 13.3334 69.1558 13.3334H11.378C10.7886 13.3334 10.2234 13.5675 9.80664 13.9842C9.38989 14.401 9.15576 14.9662 9.15576 15.5556V17.7778H71.378V15.5556Z" fill="#35ACEF"/>
</svg>
