<svg width="264" height="264" viewBox="0 0 264 264" fill="none" xmlns="http://www.w3.org/2000/svg">
<mask id="path-1-inside-1_335_702" fill="white">
<path d="M132 0C155.713 2.82776e-07 178.988 6.38788 199.379 18.4923C219.771 30.5966 236.524 47.9705 247.88 68.7878L179.728 105.965C175.051 97.3904 168.15 90.2346 159.752 85.2491C151.353 80.2636 141.767 77.6326 132 77.6326L132 0Z"/>
</mask>
<path d="M132 0C155.713 2.82776e-07 178.988 6.38788 199.379 18.4923C219.771 30.5966 236.524 47.9705 247.88 68.7878L179.728 105.965C175.051 97.3904 168.15 90.2346 159.752 85.2491C151.353 80.2636 141.767 77.6326 132 77.6326L132 0Z" stroke="#7B61FF" stroke-width="120" mask="url(#path-1-inside-1_335_702)"/>
<mask id="path-2-inside-2_335_702" fill="white">
<path d="M246.608 66.5092C255.62 82.281 261.281 99.7434 263.234 117.803C265.188 135.863 263.393 154.132 257.962 171.467C252.531 188.801 243.58 204.828 231.67 218.544C219.76 232.26 205.147 243.371 188.746 251.18L155.372 181.087C162.128 177.871 168.146 173.295 173.052 167.645C177.957 161.996 181.643 155.395 183.88 148.255C186.117 141.116 186.857 133.591 186.052 126.153C185.247 118.714 182.916 111.522 179.204 105.026L246.608 66.5092Z"/>
</mask>
<path d="M246.608 66.5092C255.62 82.281 261.281 99.7434 263.234 117.803C265.188 135.863 263.393 154.132 257.962 171.467C252.531 188.801 243.58 204.828 231.67 218.544C219.76 232.26 205.147 243.371 188.746 251.18L155.372 181.087C162.128 177.871 168.146 173.295 173.052 167.645C177.957 161.996 181.643 155.395 183.88 148.255C186.117 141.116 186.857 133.591 186.052 126.153C185.247 118.714 182.916 111.522 179.204 105.026L246.608 66.5092Z" stroke="#61B3FF" stroke-width="120" mask="url(#path-2-inside-2_335_702)"/>
<mask id="path-3-inside-3_335_702" fill="white">
<path d="M189.111 251.005C166.705 261.758 141.719 265.967 117.027 263.148C92.3349 260.329 68.9403 250.596 49.5346 235.07C30.1289 219.544 15.5006 198.855 7.33265 175.383C-0.835279 151.911 -2.211 126.61 3.36377 102.391L79.0181 119.805C76.722 129.78 77.2886 140.201 80.6528 149.868C84.0169 159.536 90.0419 168.057 98.0346 174.452C106.027 180.847 115.663 184.855 125.833 186.016C136.003 187.178 146.294 185.444 155.523 181.015L189.111 251.005Z"/>
</mask>
<path d="M189.111 251.005C166.705 261.758 141.719 265.967 117.027 263.148C92.3349 260.329 68.9403 250.596 49.5346 235.07C30.1289 219.544 15.5006 198.855 7.33265 175.383C-0.835279 151.911 -2.211 126.61 3.36377 102.391L79.0181 119.805C76.722 129.78 77.2886 140.201 80.6528 149.868C84.0169 159.536 90.0419 168.057 98.0346 174.452C106.027 180.847 115.663 184.855 125.833 186.016C136.003 187.178 146.294 185.444 155.523 181.015L189.111 251.005Z" stroke="#FF6190" stroke-width="120" mask="url(#path-3-inside-3_335_702)"/>
<mask id="path-4-inside-4_335_702" fill="white">
<path d="M3.32458 102.561C10.0068 73.3534 26.4273 47.2878 49.8868 28.649C73.3464 10.0102 102.449 -0.0927972 132.412 0.000641863L132.17 77.6329C119.829 77.5944 107.842 81.7556 98.1797 89.4324C88.5173 97.1092 81.7542 107.845 79.0019 119.875L3.32458 102.561Z"/>
</mask>
<path d="M3.32458 102.561C10.0068 73.3534 26.4273 47.2878 49.8868 28.649C73.3464 10.0102 102.449 -0.0927972 132.412 0.000641863L132.17 77.6329C119.829 77.5944 107.842 81.7556 98.1797 89.4324C88.5173 97.1092 81.7542 107.845 79.0019 119.875L3.32458 102.561Z" stroke="#FFDC61" stroke-width="120" mask="url(#path-4-inside-4_335_702)"/>
</svg>
