<svg width="72" height="72" viewBox="0 0 72 72" fill="none" xmlns="http://www.w3.org/2000/svg">
<path d="M42.1675 38.1359L46.4738 48.161C46.7409 48.7886 46.8487 49.4725 46.7874 50.1518C46.7261 50.8311 46.4976 51.4846 46.1224 52.0542C45.7473 52.6238 45.237 53.0918 44.6371 53.4163C44.0372 53.7408 43.3663 53.9119 42.6842 53.9142H28.9729C28.2909 53.9119 27.62 53.7408 27.0201 53.4163C26.4202 53.0918 25.9099 52.6238 25.5347 52.0542C25.1595 51.4846 24.9311 50.8311 24.8698 50.1518C24.8085 49.4725 24.9162 48.7886 25.1834 48.161L29.4897 38.1359C28.1282 37.1809 27.0004 35.9302 26.1908 34.4776C25.3812 33.025 24.9107 31.408 24.8146 29.7477C24.7185 28.0875 24.9993 26.427 25.6359 24.8907C26.2725 23.3543 27.2484 21.9819 28.4906 20.8762C29.6573 19.8475 31.0262 19.074 32.5093 18.6053C33.9925 18.1366 35.5573 17.9831 37.1032 18.1546C39.3251 18.4103 41.4167 19.3358 43.1002 20.8081C44.7837 22.2805 45.9796 24.23 46.5291 26.398C47.0786 28.566 46.9556 30.8499 46.1766 32.9463C45.3976 35.0428 43.9993 36.8528 42.1675 38.1359ZM71.6571 36C71.6571 43.0862 69.5558 50.0133 65.6189 55.9052C61.682 61.7972 56.0864 66.3895 49.5396 69.1012C42.9928 71.813 35.7888 72.5225 28.8388 71.1401C21.8887 69.7576 15.5047 66.3453 10.494 61.3346C5.48324 56.3239 2.07091 49.9398 0.688452 42.9898C-0.694001 36.0397 0.015524 28.8358 2.7273 22.289C5.43908 15.7421 10.0313 10.1465 15.9233 6.20959C21.8153 2.2727 28.7424 0.171387 35.8286 0.171387C45.3253 0.189597 54.4279 3.97023 61.1431 10.6854C67.8583 17.4007 71.6389 26.5032 71.6571 36ZM66.1451 36C66.1451 30.0039 64.367 24.1425 61.0358 19.157C57.7046 14.1715 52.9698 10.2858 47.4302 7.99118C41.8906 5.6966 35.7949 5.09623 29.9141 6.266C24.0333 7.43576 18.6314 10.3231 14.3916 14.563C10.1518 18.8028 7.26439 24.2047 6.09462 30.0855C4.92486 35.9663 5.52522 42.062 7.81981 47.6016C10.1144 53.1412 14.0001 57.876 18.9856 61.2072C23.9712 64.5384 29.8325 66.3164 35.8286 66.3164C43.8662 66.3073 51.572 63.1103 57.2555 57.4269C62.939 51.7434 66.1359 44.0376 66.1451 36Z" fill="white"/>
</svg>
